<svg width="500" height="500" viewBox="0 0 500 500" fill="none" xmlns="http://www.w3.org/2000/svg">
<rect width="500" height="500" fill="#05163D"/>
<mask id="mask0_385_110" style="mask-type:luminance" maskUnits="userSpaceOnUse" x="94" y="75" width="311" height="351">
<path d="M405 75H94V425.365H405V75Z" fill="white"/>
</mask>
<g mask="url(#mask0_385_110)">
<path d="M105.799 181.544V318.981C105.799 327.701 110.455 335.841 118.102 340.155L237.184 408.832C244.756 413.229 254.151 413.229 261.715 408.832L380.873 340.155C388.444 335.757 393.176 327.701 393.176 318.981V181.544C393.176 172.824 388.52 164.683 380.873 160.285L261.715 91.6088C254.151 87.2111 244.756 87.2111 237.184 91.6088L118.026 160.285C110.539 164.683 105.799 172.74 105.799 181.544Z" fill="#05163D"/>
<path d="M275.521 276.875L258.47 323.378C257.974 324.62 257.974 326.114 258.47 327.365L287.656 407.422L321.498 387.909L280.916 276.8C280 274.307 276.428 274.307 275.512 276.883L275.521 276.875Z" fill="#12AAFF"/>
<path d="M309.531 198.564C308.615 195.987 305.044 195.987 304.044 198.564L287.001 245.067C286.505 246.393 286.505 247.803 287.001 249.054L334.903 380.179L368.745 360.666L309.54 198.564H309.531Z" fill="#12AAFF"/>
<path d="M249.496 96.6696C250.328 96.6696 251.16 96.9214 251.908 97.3327L380.797 171.657C382.293 172.488 383.209 174.066 383.209 175.812V324.461C383.209 326.207 382.293 327.784 380.797 328.615L251.908 403.024C251.16 403.435 250.328 403.687 249.496 403.687C248.664 403.687 247.832 403.435 247.084 403.024L118.195 328.699C116.699 327.868 115.783 326.291 115.783 324.545V175.812C115.783 174.066 116.699 172.488 118.195 171.657L247.084 97.3327C247.832 96.9214 248.664 96.6696 249.496 96.6696ZM249.496 75C244.924 75 240.268 76.2421 236.193 78.5668L107.303 152.892C99.1515 157.625 94 166.345 94 175.812V324.461C94 333.928 99.0759 342.732 107.303 347.465L236.193 421.79C240.268 424.198 244.84 425.357 249.496 425.357C254.152 425.357 258.723 424.115 262.799 421.79L391.688 347.465C399.924 342.732 404.992 334.012 404.992 324.461V175.812C404.992 166.345 399.916 157.541 391.688 152.808L262.799 78.5668C258.639 76.2421 254.067 75 249.496 75Z" fill="#9DCCED"/>
<path d="M164.254 380.347L176.145 347.96L199.928 367.724L177.725 388.068L164.254 380.347Z" fill="#05163D"/>
<path d="M238.605 165.263H205.922C203.51 165.263 201.267 166.757 200.435 169.081L130.414 360.911L164.256 380.423L241.428 169.157C242.092 167.243 240.681 165.254 238.596 165.254L238.605 165.263Z" fill="white"/>
<path d="M295.809 165.262H263.126C260.714 165.262 258.47 166.756 257.638 169.081L177.727 388.068L211.569 407.581L298.548 169.165C299.296 167.251 297.8 165.262 295.8 165.262H295.809Z" fill="white"/>
</g>
</svg>
