<?xml version="1.0" encoding="UTF-8"?>
<svg id="Layer_1" xmlns="http://www.w3.org/2000/svg" version="1.1" viewBox="0 0 1315.13 515.13">
  <!-- Generator: Adobe Illustrator 30.0.0, SVG Export Plug-In . SVG Version: 2.1.1 Build 123)  -->
  <defs>
    <style>
      .st0 {
        fill: #fff;
      }
    </style>
  </defs>
  <path class="st0" d="M351.34,181.38l-99.9-58.01c-3.24-1.85-6.77-2.81-10.36-2.81s-7.12.95-10.3,2.81l-99.92,58.06c-6.34,3.7-10.3,10.53-10.3,17.91v116.13c0,7.38,3.96,14.29,10.3,17.97l17.97,10.44,26.21,15.22,5.87-16.17,53.98-148.88c.49-1.45-.55-3.01-2.17-3.01h-25.31c-1.88,0-3.62,1.19-4.22,2.95l-48.46,133.72-15.39-8.94c-1.16-.67-1.88-1.91-1.88-3.24v-116.18c0-1.33.72-2.57,1.88-3.24l99.93-58.06c.55-.35,1.22-.49,1.85-.49s1.27.17,1.88.49l99.95,58.06c1.16.67,1.88,1.91,1.88,3.24v116.13c0,1.33-.72,2.57-1.88,3.24l-15.22,8.85-40.04-110.48c-.72-2.03-3.5-2.03-4.22,0l-13.19,36.34c-.38,1.01-.38,2.14,0,3.12l31.24,86.24-10.39,6.05-25.57-70.62c-.72-2.03-3.5-2.03-4.22,0l-13.19,36.34c-.38,1.01-.38,2.14,0,3.12l16.81,46.38-21.93,12.76c-.55.35-1.21.49-1.88.49s-1.27-.17-1.88-.49l-21.67-12.61,61.65-170.11c.55-1.5-.55-3.1-2.11-3.1h-25.31c-1.88,0-3.62,1.19-4.22,2.95l-56.21,155.01-5.87,16.17,26.21,15.22,19.12,11.11c3.18,1.85,6.74,2.81,10.3,2.81s7.12-.95,10.3-2.81l99.95-58.06c6.39-3.7,10.3-10.53,10.3-17.97v-116.07c0-7.38-3.96-14.29-10.3-17.97h-.06Z"/>
  <g>
    <path class="st0" d="M470.1,222.22c2.52,0,4.7.51,6.44,1.57,1.74,1.06,3.47,3.08,5.15,6.1l33.25,60.34c.34.67.39,1.23.23,1.68-.17.45-.67.67-1.45.67h-12.76c-1.12,0-1.9-.45-2.3-1.29l-7.11-12.93h-47.19l-6.94,12.93c-.45.9-1.23,1.29-2.3,1.29h-13.04c-.89,0-1.4-.23-1.57-.67-.17-.45-.11-1.01.23-1.68l32.97-60.34c1.68-3.02,3.3-5.04,4.93-6.1,1.62-1.06,3.47-1.57,5.6-1.57h5.88,0ZM450.56,266.61h34.59l-15.95-29.44c-.28-.45-.62-.73-1.12-.73h-.62c-.45,0-.84.23-1.12.73l-15.79,29.44h0Z"/>
    <path class="st0" d="M587.99,222.22c7.72,0,13.21,1.74,16.57,5.21,3.36,3.47,5.04,8.62,5.04,15.45v5.71c0,5.76-1.17,10.3-3.53,13.66-2.35,3.36-6.16,5.49-11.48,6.44l17.19,21.27c.34.34.45.84.28,1.51-.11.68-.67,1-1.62,1h-12.93c-.89,0-1.45-.11-1.79-.28-.34-.23-.67-.56-1.01-1.01l-15.9-20.88h-32.46v19.99c0,1.45-.73,2.19-2.18,2.19h-10.86c-1.57,0-2.3-.73-2.3-2.19v-65.05c0-2.02,1.01-3.02,3.02-3.02h53.96ZM546.4,258.1h38.46c3.42,0,5.82-.73,7.22-2.18,1.4-1.45,2.13-3.7,2.13-6.72v-4.2c0-3.02-.73-5.26-2.13-6.72-1.4-1.45-3.81-2.19-7.22-2.19h-37.17c-.89,0-1.29.39-1.29,1.23v20.77h0Z"/>
    <path class="st0" d="M693.62,222.22c6.89,0,11.81,1.4,14.72,4.14,2.91,2.74,4.36,6.89,4.36,12.42v4.81c0,5.6-2.13,9.85-6.44,12.76,4.59,2.68,6.94,7,6.94,12.93v5.82c0,2.68-.28,5.09-.9,7.22-.62,2.13-1.57,3.97-2.96,5.49-1.4,1.51-3.19,2.68-5.49,3.47-2.3.79-5.09,1.23-8.45,1.23h-59.68c-2.02,0-3.02-1-3.02-3.02v-64.26c0-2.02,1.01-3.02,3.02-3.02h57.89ZM648.11,251.44h41.2c3.36,0,5.6-.51,6.83-1.51,1.23-1.01,1.79-2.46,1.79-4.42v-3.42c0-2.07-.56-3.58-1.74-4.59-1.17-.95-3.08-1.45-5.66-1.45h-41.09c-.9,0-1.29.45-1.29,1.29v14.1h-.06.01ZM648.11,262.42v14.95c0,.89.45,1.29,1.29,1.29h41.2c2.68,0,4.59-.51,5.71-1.45,1.12-.95,1.74-2.52,1.74-4.64v-3.81c0-2.07-.62-3.64-1.85-4.7-1.23-1.06-3.53-1.62-6.89-1.62h-41.2Z"/>
    <path class="st0" d="M750.67,222.22c1.45,0,2.18.73,2.18,2.18v65.89c0,1.45-.73,2.18-2.18,2.18h-10.86c-1.57,0-2.3-.73-2.3-2.18v-65.83c0-1.45.78-2.19,2.3-2.19l10.86-.06Z"/>
    <path class="st0" d="M855.91,222.22c1.57,0,2.3.73,2.3,2.18v9.85c0,1.57-.78,2.3-2.3,2.3h-31.52v53.74c0,1.45-.73,2.18-2.19,2.18h-10.97c-1.45,0-2.18-.73-2.18-2.18v-53.74h-31.52c-1.57,0-2.3-.78-2.3-2.3v-9.85c0-1.45.78-2.18,2.3-2.18h78.38Z"/>
    <path class="st0" d="M935.34,222.22c7.72,0,13.21,1.74,16.57,5.21,3.36,3.47,5.04,8.62,5.04,15.45v5.71c0,5.76-1.17,10.3-3.53,13.66-2.35,3.36-6.16,5.49-11.48,6.44l17.19,21.27c.34.34.45.84.28,1.51-.11.68-.67,1-1.62,1h-12.93c-.9,0-1.45-.11-1.79-.28-.34-.23-.67-.56-1-1.01l-15.9-20.88h-32.47v19.99c0,1.45-.73,2.19-2.18,2.19h-10.86c-1.57,0-2.3-.73-2.3-2.19v-65.05c0-2.02,1.01-3.02,3.02-3.02h53.96ZM893.8,258.1h38.46c3.42,0,5.82-.73,7.22-2.18,1.4-1.45,2.13-3.7,2.13-6.72v-4.2c0-3.02-.73-5.26-2.13-6.72-1.4-1.45-3.81-2.19-7.22-2.19h-37.17c-.89,0-1.29.39-1.29,1.23v20.77h0Z"/>
    <path class="st0" d="M991.82,222.22c1.45,0,2.19.73,2.19,2.18v40.08c0,2.68.23,4.93.67,6.66.45,1.79,1.17,3.19,2.19,4.2,1.01,1.06,2.35,1.79,4.08,2.19,1.74.45,3.87.67,6.49.67h27.82c2.63,0,4.76-.23,6.49-.67,1.74-.45,3.08-1.17,4.09-2.19,1-1.06,1.74-2.46,2.13-4.2.39-1.79.62-3.97.62-6.66v-40.08c0-1.45.73-2.18,2.19-2.18h10.97c1.45,0,2.18.73,2.18,2.18v41.59c0,4.81-.51,8.9-1.51,12.32-1.01,3.36-2.63,6.1-4.87,8.23-2.24,2.13-5.15,3.64-8.74,4.59-3.58.95-7.89,1.4-12.99,1.4h-28.94c-5.09,0-9.4-.45-12.93-1.4-3.53-.95-6.44-2.46-8.68-4.59s-3.86-4.87-4.93-8.23c-1.06-3.36-1.57-7.5-1.57-12.32v-41.59c0-1.45.78-2.18,2.3-2.18h10.75Z"/>
    <path class="st0" d="M1107.09,222.22c1.45,0,2.74.11,3.81.28,1.06.23,2.02.56,2.8,1.17.79.56,1.51,1.34,2.18,2.3.62.95,1.29,2.24,1.96,3.86l20.88,48.2c.28.62.73.89,1.41.89h1.23c.67,0,1.12-.28,1.4-.89l20.88-48.2c.67-1.62,1.34-2.91,1.96-3.86.62-.95,1.34-1.74,2.18-2.3.79-.56,1.74-.95,2.75-1.17,1.06-.23,2.29-.28,3.75-.28h10.74c3.47,0,5.83.78,7.06,2.35,1.23,1.57,1.79,4.25,1.79,8.06v57.66c0,1.45-.79,2.18-2.3,2.18h-10.24c-1.46,0-2.19-.73-2.19-2.18v-52.45c0-.68-.28-1.01-.78-1.01h-.9c-.67,0-1.12.28-1.29.78l-20.27,45.01c-.78,1.79-1.62,3.36-2.46,4.59-.84,1.23-1.74,2.24-2.69,3.08-.95.79-2.06,1.4-3.3,1.74-1.23.34-2.68.51-4.36.51h-4.81c-1.68,0-3.14-.17-4.37-.51-1.23-.34-2.35-.9-3.3-1.74-.95-.78-1.9-1.85-2.68-3.08-.84-1.23-1.68-2.74-2.47-4.59l-20.26-45.01c-.23-.56-.62-.78-1.29-.78h-.9c-.56,0-.78.34-.78,1.01v52.45c0,1.45-.73,2.18-2.19,2.18h-10.25c-1.57,0-2.3-.73-2.3-2.18v-57.66c0-3.81.62-6.49,1.79-8.06,1.23-1.57,3.58-2.35,7.11-2.35h10.69Z"/>
  </g>
</svg>