<svg width="500" height="500" viewBox="0 0 500 500" fill="none" xmlns="http://www.w3.org/2000/svg">
<rect width="500" height="500" fill="#0B0B0B"/>
<g clip-path="url(#clip0_388_140)">
<path fill-rule="evenodd" clip-rule="evenodd" d="M420.453 269.066V270.345H421.205C421.686 270.345 421.956 270.187 421.956 269.695C421.956 269.302 421.745 269.066 421.301 269.066H420.453ZM419.797 268.496H421.301C422.168 268.496 422.63 268.948 422.63 269.656C422.63 270.285 422.361 270.639 421.918 270.816L422.612 272.114H421.88L421.243 270.914H420.453V272.114H419.797V268.496ZM421.185 273.569C422.978 273.569 424.23 272.467 424.23 270.384C424.23 268.319 422.978 267.218 421.185 267.218C419.373 267.218 418.12 268.319 418.12 270.384C418.12 272.467 419.373 273.569 421.185 273.569ZM421.185 266.706C423.479 266.706 424.828 268.182 424.828 270.384C424.828 272.586 423.479 274.06 421.185 274.06C418.872 274.06 417.542 272.586 417.542 270.384C417.542 268.182 418.872 266.706 421.185 266.706ZM251.241 273.624L238.181 250.53L250.435 236.919H237.976L225.234 251.531V224.001H214.249V273.623H225.234V264.696L230.497 258.951L238.739 273.624H251.241ZM414.434 273.624L401.374 250.53L413.628 236.919H401.312L388.428 251.531V224.001H377.443V273.623H388.428V264.696L393.691 258.951L401.931 273.624H414.434ZM158.266 261.345C158.266 264.711 155.078 266.932 151.447 266.932C148.013 266.932 146.336 265.132 146.336 262.643C146.336 260.013 148.231 258.098 152.051 258.098C154.414 258.098 156.539 258.511 158.266 258.921V261.345ZM173.255 272.993V265.215C172.786 265.338 172.076 265.48 171.387 265.48C169.935 265.48 169.249 264.748 169.249 263.379V250.515C169.249 240.893 162.926 235.749 152.448 235.749C145.65 235.749 139.789 238.281 136.132 241.591L142.25 248.621C144.697 246.449 147.953 245.033 151.082 245.033C155.925 245.033 158.265 247.505 158.265 251.607V252.81C155.941 252.237 153.084 251.703 149.545 251.703C140.693 251.703 134.966 256.017 134.966 263.238C134.966 270.606 139.746 274.484 147.172 274.484C152.267 274.484 156.761 272.363 159.164 269.607C160.603 273.227 163.68 274.205 166.744 274.205C168.76 274.205 171.17 273.854 173.255 272.993ZM265.66 247.09H274.164C279.456 247.089 281.997 244.069 281.997 240.441C281.997 236.177 279.555 233.842 274.164 233.841H265.66V247.09ZM281.97 273.623L272.741 256.928H265.66V273.623H254.218V224.001H274.809C285.949 224.001 293.75 229.414 293.75 240.114C293.75 246.954 290.417 251.728 284.549 254.719L295.218 273.623H281.97ZM374.845 245.747C371.789 239.264 366.108 235.655 357.522 235.655C347.363 235.655 338.305 242.166 338.305 255.029C338.305 267.604 346.278 274.559 357.37 274.559C365.164 274.559 371.717 271.385 374.776 264.535L365.836 259.825C364.232 262.886 361.697 264.781 357.74 264.781C352.636 264.781 349.265 261.032 349.265 255.014C349.265 248.977 353.07 245.329 357.664 245.329C361.216 245.329 363.967 247.007 365.616 250.563L374.845 245.747ZM211.51 245.747C208.454 239.264 202.773 235.655 194.187 235.655C184.028 235.655 174.97 242.166 174.97 255.029C174.97 267.604 182.943 274.559 194.034 274.559C201.829 274.559 208.382 271.385 211.441 264.535L202.501 259.825C200.897 262.886 198.361 264.781 194.405 264.781C189.301 264.781 185.93 261.032 185.93 255.014C185.93 248.977 189.734 245.329 194.328 245.329C197.88 245.329 200.632 247.007 202.281 250.563L211.51 245.747ZM102.901 258.602C102.901 261.858 100.705 264.005 96.5311 264.005L86.5486 264.005V253.199H96.5311C100.512 253.199 102.901 255.264 102.901 258.602ZM101.859 238.647C101.859 242.015 99.7453 243.975 95.7176 243.975H86.5534V233.622H95.7176C99.4149 233.623 101.859 235.296 101.859 238.647ZM115.057 259.324C115.057 253.755 112.227 249.452 107.153 247.565C111.959 244.909 113.651 241.343 113.651 237.198C113.651 229.957 108.509 223.999 97.0439 224L75 224.001V273.623H97.9784C109.524 273.623 115.057 267.759 115.057 259.324ZM323.961 255.056C323.961 261.322 319.866 264.853 315.068 264.853C310.27 264.853 306.176 261.322 306.176 255.056C306.176 248.718 310.265 245.336 315.068 245.336C319.872 245.336 323.961 248.718 323.961 255.056ZM334.893 255.053C334.893 243.094 325.79 235.601 315.068 235.601C304.345 235.601 295.244 243.092 295.244 255.053C295.244 267.021 304.342 274.587 315.068 274.587C325.793 274.587 334.893 267.018 334.893 255.053ZM119.496 273.623H130.582V224.001H119.496V273.623Z" fill="white"/>
</g>
<defs>
<clipPath id="clip0_388_140">
<rect width="350" height="51" fill="white" transform="translate(75 224)"/>
</clipPath>
</defs>
</svg>
