<svg width="925" height="235" viewBox="0 0 925 235" fill="none" xmlns="http://www.w3.org/2000/svg">
<g clip-path="url(#clip0_4155_846)">
<path d="M101.475 0.630371L0 59.2186V176.395L101.475 234.983L202.95 176.395V59.2186L101.475 0.630371ZM159.96 151.563L101.494 185.319L43.0272 151.563V84.0506L101.494 50.2944L159.96 84.0506V151.563Z" fill="white"/>
<path d="M314.287 176.517C304.21 176.517 295.183 174.211 287.233 169.571C279.275 164.94 272.994 158.256 268.392 149.501C263.789 140.745 261.492 130.209 261.492 117.882C261.492 105.555 263.817 94.8495 268.438 86.066C273.069 77.2918 279.369 70.5987 287.355 65.996C295.333 61.3933 304.313 59.0967 314.297 59.0967C320.783 59.0967 326.839 60.0247 332.407 61.862C337.985 63.6994 342.944 66.371 347.293 69.8769C351.643 73.3828 355.177 77.6668 357.924 82.7288C360.661 87.7908 362.433 93.5465 363.258 100.005H340.619C340.103 96.7337 339.11 93.809 337.629 91.2124C336.138 88.6345 334.263 86.4316 331.995 84.613C329.717 82.7944 327.13 81.4164 324.252 80.4697C321.355 79.5229 318.206 79.0542 314.775 79.0542C308.738 79.0542 303.423 80.5634 298.811 83.5819C294.208 86.6003 290.608 90.9968 288.03 96.7806C285.443 102.555 284.149 109.604 284.149 117.882C284.149 126.159 285.452 133.349 288.058 139.105C290.674 144.86 294.255 149.201 298.839 152.144C303.423 155.088 308.71 156.559 314.681 156.559C318.009 156.559 321.102 156.109 323.961 155.209C326.82 154.319 329.398 153.007 331.676 151.291C333.945 149.585 335.857 147.485 337.394 145.001C338.932 142.517 340.01 139.667 340.619 136.452H363.258C362.592 141.814 360.998 146.913 358.467 151.722C355.936 156.522 352.562 160.787 348.334 164.49C344.116 168.202 339.147 171.117 333.448 173.283C327.739 175.429 321.355 176.507 314.306 176.507V176.536L314.287 176.517Z" fill="white"/>
<path d="M397.324 125.053V174.933H375.379V60.5874H396.714V104.093H397.792C399.78 99.1338 402.911 95.2154 407.157 92.3469C411.394 89.4878 416.803 88.0442 423.346 88.0442C429.28 88.0442 434.483 89.3191 438.917 91.8782C443.369 94.4373 446.828 98.1213 449.275 102.93C451.731 107.73 452.95 113.551 452.95 120.357V174.914H430.921V124.041C430.921 118.51 429.514 114.207 426.702 111.104C423.89 108.011 419.915 106.464 414.806 106.464C411.375 106.464 408.357 107.205 405.751 108.695C403.136 110.186 401.083 112.295 399.573 115.023C398.064 117.769 397.314 121.088 397.314 125.044V125.063L397.324 125.053Z" fill="white"/>
<path d="M491.963 176.63C486.488 176.63 481.595 175.655 477.274 173.714C472.952 171.765 469.549 168.887 467.065 165.081C464.581 161.275 463.344 156.55 463.344 150.926C463.344 146.126 464.225 142.124 465.997 138.946C467.768 135.768 470.168 133.209 473.215 131.24C476.261 129.272 479.702 127.781 483.573 126.788C487.435 125.794 491.494 125.091 495.731 124.678C500.746 124.163 504.787 123.694 507.861 123.263C510.936 122.832 513.167 122.138 514.573 121.191C515.979 120.244 516.682 118.848 516.682 117.01V116.626C516.682 112.783 515.501 109.802 513.158 107.683C510.805 105.565 507.449 104.496 503.099 104.496C498.497 104.496 494.841 105.499 492.122 107.533C489.413 109.549 487.604 111.995 486.676 114.854L466.259 112.623C467.534 107.411 469.859 102.968 473.205 99.312C476.552 95.6561 480.761 92.8626 485.823 90.9409C490.885 89.0192 496.641 88.0537 503.09 88.0537C507.543 88.0537 511.883 88.5787 516.101 89.6286C520.32 90.6691 524.126 92.3377 527.538 94.625C530.931 96.9029 533.659 99.912 535.665 103.643C537.68 107.383 538.702 111.93 538.702 117.31V174.933H517.685V163.037H517.076C515.736 165.587 513.964 167.902 511.705 169.955C509.455 172.008 506.69 173.621 503.418 174.83C500.147 176.039 496.331 176.639 491.982 176.639H491.954L491.963 176.63ZM497.934 160.975C501.721 160.975 505.021 160.225 507.833 158.716C510.646 157.207 512.848 155.191 514.433 152.66C516.017 150.129 516.814 147.326 516.814 144.261V134.662C516.101 135.177 515.042 135.637 513.673 136.049C512.286 136.462 510.73 136.837 508.986 137.165C507.252 137.493 505.527 137.783 503.84 138.046C502.153 138.299 500.643 138.505 499.312 138.655C496.397 139.068 493.828 139.733 491.597 140.642C489.366 141.571 487.613 142.817 486.338 144.402C485.064 145.986 484.417 147.982 484.417 150.392C484.417 153.869 485.682 156.503 488.213 158.303C490.744 160.094 493.978 160.984 497.916 160.984H497.925L497.934 160.975Z" fill="white"/>
<path d="M553.121 174.942V89.1497H575.066V174.942H553.121Z" fill="white"/>
<path d="M611.445 125.053V174.933H589.5V89.1317H611.06V104.093H611.989C613.929 99.1808 617.013 95.2811 621.231 92.3845C625.45 89.4879 630.755 88.0537 637.158 88.0537C643.092 88.0537 648.276 89.3286 652.691 91.8877C657.116 94.4375 660.546 98.1403 662.984 102.968C665.412 107.805 666.63 113.598 666.63 120.348V174.905H644.685V124.032C644.685 118.557 643.27 114.254 640.43 111.142C637.599 108.03 633.69 106.455 628.721 106.455C625.347 106.455 622.356 107.196 619.778 108.686C617.191 110.177 615.166 112.286 613.676 115.014C612.185 117.76 611.454 121.079 611.454 125.035V125.053H611.445Z" fill="white"/>
<path d="M702.988 54.9629V174.942H681.043V54.9629H702.988Z" fill="white"/>
<path d="M717.406 174.942V89.1497H739.351V174.942H717.406Z" fill="white"/>
<path d="M775.722 125.053V174.933H753.777V89.1317H775.338V104.093H776.266C778.206 99.1808 781.29 95.2811 785.509 92.3845C789.727 89.4879 795.033 88.0537 801.435 88.0537C807.369 88.0537 812.553 89.3286 816.978 91.8877C821.402 94.4375 824.833 98.1403 827.261 102.968C829.689 107.805 830.908 113.598 830.908 120.348V174.905H808.963V124.032C808.963 118.557 807.547 114.254 804.707 111.142C801.876 108.03 797.967 106.455 792.999 106.455C789.624 106.455 786.634 107.196 784.056 108.686C781.468 110.177 779.444 112.286 777.953 115.014C776.463 117.76 775.722 121.079 775.722 125.035V125.053Z" fill="white"/>
<path d="M898.982 174.942H925.005L890.743 126.3L923.233 89.1409H897.764L868.666 122.682H867.298V60.5874H845.344V174.942H867.298V146.932L874.178 139.302L898.982 174.933V174.942Z" fill="white"/>
<path d="M575.238 54.9629H553.293V76.9077H575.238V54.9629Z" fill="white"/>
<path d="M739.542 54.9629H717.598V76.9077H739.542V54.9629Z" fill="white"/>
</g>
<defs>
<clipPath id="clip0_4155_846">
<rect width="925.006" height="234.353" fill="white" transform="translate(0 0.630371)"/>
</clipPath>
</defs>
</svg>
