<svg width="500" height="500" viewBox="0 0 500 500" fill="none" xmlns="http://www.w3.org/2000/svg">
<rect width="500" height="500" fill="#0B0B0B"/>
<g clip-path="url(#clip0_384_57)">
<path d="M427.558 87H71.4414V441.388H427.558V87Z" fill="black"/>
<path fill-rule="evenodd" clip-rule="evenodd" d="M289.1 97.3647C278.339 106.286 264.521 111.648 249.452 111.648C234.458 111.648 220.704 106.34 209.966 97.4989C198.573 88.1208 180.296 84.1292 169.769 94.4673C144.446 119.333 119.33 144.45 94.4622 169.773C84.1261 180.301 88.1167 198.578 97.4957 209.969C106.334 220.707 111.644 234.462 111.644 249.456C111.644 264.526 106.281 278.344 97.3616 289.107C87.944 300.466 83.8945 318.728 94.2224 329.265C119.066 354.611 144.245 379.666 169.578 404.525C180.14 414.889 198.506 410.864 209.923 401.448C220.667 392.588 234.437 387.265 249.452 387.265C264.542 387.265 278.377 392.642 289.145 401.583C300.529 411.039 318.879 415.122 329.45 404.767C354.806 379.934 379.929 354.81 404.762 329.457C415.119 318.884 411.034 300.534 401.578 289.15C392.635 278.382 387.261 264.547 387.261 249.456C387.261 234.442 392.583 220.671 401.445 209.926C410.859 198.509 414.886 180.145 404.52 169.582C379.663 144.249 354.609 119.069 329.26 94.2265C318.724 83.8975 300.461 87.9491 289.1 97.3647ZM220.287 142.607C236.473 126.422 262.715 126.422 278.901 142.607L356.737 220.444C372.923 236.63 372.923 262.872 356.737 279.058L278.901 356.895C262.715 373.079 236.473 373.079 220.287 356.895L142.451 279.058C126.265 262.872 126.265 236.63 142.451 220.444L220.287 142.607Z" fill="white"/>
<path d="M249.552 301.574C278.279 301.574 301.568 278.287 301.568 249.559C301.568 220.831 278.279 197.543 249.552 197.543C220.826 197.543 197.537 220.831 197.537 249.559C197.537 278.287 220.826 301.574 249.552 301.574Z" fill="white"/>
</g>
<defs>
<clipPath id="clip0_384_57">
<rect width="325" height="325" fill="white" transform="translate(87 87)"/>
</clipPath>
</defs>
</svg>
