<svg width="500" height="500" viewBox="0 0 500 500" fill="none" xmlns="http://www.w3.org/2000/svg">
<rect width="500" height="500" fill="#0B0B0B"/>
<g clip-path="url(#clip0_384_57)">
<path d="M441.755 75H58.2441V456.649H441.755V75Z" fill="black"/>
<path fill-rule="evenodd" clip-rule="evenodd" d="M292.646 86.1618C281.057 95.7688 266.176 101.543 249.948 101.543C233.8 101.543 218.988 95.8269 207.424 86.3062C195.155 76.2067 175.472 71.9081 164.136 83.0414C136.864 109.82 109.817 136.869 83.0357 164.14C71.9046 175.477 76.2021 195.161 86.3026 207.428C95.8211 218.992 101.539 233.805 101.539 249.952C101.539 266.182 95.7642 281.062 86.1582 292.653C76.0161 304.886 71.6551 324.553 82.7775 335.9C109.532 363.197 136.648 390.178 163.93 416.95C175.304 428.111 195.083 423.777 207.378 413.636C218.949 404.095 233.778 398.362 249.948 398.362C266.199 398.362 281.098 404.152 292.694 413.781C304.954 423.965 324.716 428.362 336.1 417.21C363.406 390.467 390.462 363.411 417.205 336.107C428.359 324.721 423.959 304.959 413.776 292.7C404.145 281.103 398.357 266.204 398.357 249.952C398.357 233.783 404.089 218.953 413.632 207.382C423.771 195.086 428.107 175.31 416.944 163.935C390.175 136.653 363.193 109.536 335.895 82.7821C324.548 71.6586 304.881 76.0218 292.646 86.1618ZM218.54 134.885C235.971 117.454 264.231 117.454 281.662 134.885L365.485 218.709C382.916 236.14 382.916 264.4 365.485 281.831L281.662 365.656C264.231 383.085 235.971 383.085 218.54 365.656L134.716 281.831C117.285 264.4 117.285 236.14 134.716 218.709L218.54 134.885Z" fill="white"/>
<path d="M250.056 306.08C280.992 306.08 306.072 281.001 306.072 250.063C306.072 219.126 280.992 194.046 250.056 194.046C219.12 194.046 194.039 219.126 194.039 250.063C194.039 281.001 219.12 306.08 250.056 306.08Z" fill="white"/>
</g>
<defs>
<clipPath id="clip0_384_57">
<rect width="350" height="350" fill="white" transform="translate(75 75)"/>
</clipPath>
</defs>
</svg>
