<svg width="500" height="500" viewBox="0 0 500 500" fill="none" xmlns="http://www.w3.org/2000/svg">
<rect width="500" height="500" fill="white"/>
<g clip-path="url(#clip0_371_2)">
<path d="M199.796 249.968C199.796 222.419 222.118 200.096 249.667 200.096C277.215 200.096 299.56 222.419 299.56 249.968C299.56 259.058 297.139 267.576 292.869 274.904H320.227C322.988 267.108 324.496 258.719 324.496 249.968C324.496 208.655 291 175.139 249.667 175.139C208.334 175.139 174.838 208.655 174.838 249.968C174.838 291.279 208.355 324.797 249.667 324.797H407.502C411.304 316.811 414.511 308.484 417.06 299.861H249.667C222.118 299.861 199.796 277.516 199.796 249.968Z" fill="black"/>
<path d="M149.901 249.967C149.901 194.871 194.568 150.202 249.665 150.202C304.762 150.202 349.452 194.871 349.452 249.967C349.452 258.569 348.368 266.938 346.307 274.903H371.924C373.559 266.853 374.409 258.506 374.409 249.967C374.409 181.085 318.568 125.224 249.665 125.224C180.763 125.224 124.943 181.085 124.943 249.967C124.943 318.849 180.784 374.71 249.665 374.71H371.881C379.676 367.085 386.749 358.717 392.994 349.753H249.665C194.568 349.753 149.901 305.085 149.901 249.967Z" fill="black"/>
<path d="M249.667 75.3267C153.216 75.3267 75.0312 153.512 75.0312 249.963C75.0312 346.414 153.216 424.599 249.667 424.599C282.568 424.599 313.367 415.487 339.641 399.663H249.667C167.001 399.663 99.9671 332.651 99.9671 249.963C99.9671 167.275 167.001 100.263 249.667 100.263C332.334 100.263 399.368 167.296 399.368 249.963C399.368 258.459 398.667 266.785 397.286 274.899H422.519C422.817 272.817 423.093 270.736 423.326 268.633C423.411 267.784 423.497 266.934 423.56 266.063C423.794 263.705 423.964 261.326 424.07 258.948C424.155 257.46 424.218 255.974 424.24 254.465C424.282 252.979 424.304 251.471 424.304 249.963C424.304 153.512 346.119 75.3267 249.667 75.3267Z" fill="black"/>
</g>
<defs>
<clipPath id="clip0_371_2">
<rect width="350" height="350" fill="white" transform="translate(75 75)"/>
</clipPath>
</defs>
</svg>
