<svg width="500" height="500" viewBox="0 0 500 500" fill="none" xmlns="http://www.w3.org/2000/svg">
<rect width="500" height="500" fill="white"/>
<g clip-path="url(#clip0_383_32)">
<mask id="mask0_383_32" style="mask-type:luminance" maskUnits="userSpaceOnUse" x="75" y="96" width="116" height="289">
<path fill-rule="evenodd" clip-rule="evenodd" d="M75 96.4131H190.921V384.289H75V96.4131Z" fill="white"/>
</mask>
<g mask="url(#mask0_383_32)">
<path d="M172.249 117.609C178.91 109.383 185.037 102.424 190.872 96.5187C92.3584 93.0916 121.047 170.333 88.7601 248.735C51.8054 339.105 93.1363 373.534 154.695 384.289C146.099 373.182 139.084 360.742 133.884 347.382C94.1575 292.918 110.252 193.637 172.249 117.609Z" fill="#EFE812"/>
</g>
<path d="M409.295 213.884C397.661 246.885 380.83 277.445 359.552 304.201C342.493 326.68 322.06 345.878 299.111 360.985C272.46 379.298 241.484 388.839 209.934 388.455C191.514 388.634 173.109 387.242 154.891 384.29C165.006 397.391 177.546 408.043 191.699 415.555C280.78 462.269 286.372 375.537 380.606 331.512C433.51 306.785 433.704 258.489 409.246 213.884" fill="#EDE70A"/>
<path d="M299.112 123.724C312.008 126.172 324.434 130.948 335.872 137.855C365.837 156.123 391.085 182.267 409.295 213.883C425.341 164.85 417.853 126.361 382.795 119.401C344.187 111.756 314.039 109.278 285.059 87.3444C249.369 60.4549 218.054 69.2072 190.922 96.5712L196.805 96.8348C234.441 99.2602 270.423 107.38 298.917 123.619" fill="#EDE70A"/>
<path d="M172.249 117.608C110.253 193.637 94.1581 292.918 134.079 347.382C124.844 323.74 120.814 298.09 122.308 272.466C123.802 246.842 130.778 221.947 142.685 199.753C176.285 139.015 243.727 112.652 299.111 123.724C270.422 107.274 234.44 99.3657 196.999 96.9404L191.116 96.624C185.086 102.635 178.959 109.383 172.249 117.608Z" fill="#DEC21C"/>
<path d="M335.872 137.749C324.427 130.88 312.001 126.139 299.111 123.725C336.844 145.236 361.886 181.722 361.886 239.402C361.667 263.751 355.803 287.649 344.833 308.896C333.863 330.142 318.14 348.055 299.111 360.985C322.071 345.894 342.507 326.694 359.552 304.201C380.83 277.445 397.661 246.885 409.295 213.884C391.098 182.229 365.848 156.047 335.872 137.749Z" fill="#E5CB22"/>
<path d="M299.111 123.725C243.728 112.653 176.286 139.015 142.686 199.49C130.729 221.712 123.724 246.655 122.23 272.331C120.736 298.007 124.793 323.707 134.079 347.383C139.261 360.752 146.277 373.195 154.891 384.29C173.109 387.242 191.514 388.635 209.934 388.455C241.484 388.839 272.46 379.298 299.111 360.985C318.143 348.059 333.869 330.147 344.839 308.899C355.809 287.652 361.672 263.752 361.886 239.403C361.886 181.722 336.844 145.236 299.111 123.725ZM292.887 333.569C272.404 347.835 247.544 352.726 223.744 347.174C199.944 341.621 179.14 326.076 165.88 303.937C138.358 257.909 151.973 198.488 193.256 166.854C239.449 131.264 298.674 145.289 320.263 196.485C341.317 246.362 335.531 303.99 292.887 333.569Z" fill="#CCA727"/>
</g>
<defs>
<clipPath id="clip0_383_32">
<rect width="350" height="358" fill="white" transform="translate(75 71)"/>
</clipPath>
</defs>
</svg>
