<svg width="500" height="500" viewBox="0 0 500 500" fill="none" xmlns="http://www.w3.org/2000/svg">
<rect width="500" height="500" fill="#2775CA"/>
<g clip-path="url(#clip0_383_19)">
<path d="M250 450C360.834 450 450 360.834 450 250C450 139.166 360.834 50 250 50C139.166 50 50 139.166 50 250C50 360.834 139.166 450 250 450Z" fill="#2775CA"/>
<path d="M305 281.666C305 252.5 287.5 242.5 252.5 238.334C227.5 235 222.5 228.334 222.5 216.666C222.5 204.998 230.834 197.5 247.5 197.5C262.5 197.5 270.834 202.5 275 215C275.834 217.5 278.334 219.166 280.834 219.166H294.166C297.5 219.166 300 216.666 300 213.334V212.5C296.666 194.166 281.666 180 262.5 178.334V158.334C262.5 155 260 152.5 255.834 151.666H243.334C240 151.666 237.5 154.166 236.666 158.334V177.5C211.666 180.834 195.834 197.5 195.834 218.334C195.834 245.834 212.5 256.666 247.5 260.834C270.834 265 278.334 270 278.334 283.334C278.334 296.668 266.666 305.834 250.834 305.834C229.166 305.834 221.666 296.666 219.166 284.166C218.334 280.834 215.834 279.166 213.334 279.166H199.166C195.834 279.166 193.334 281.666 193.334 285V285.834C196.666 306.666 210 321.666 237.5 325.834V345.834C237.5 349.166 240 351.666 244.166 352.5H256.666C260 352.5 262.5 350 263.334 345.834V325.834C288.334 321.666 305 304.166 305 281.666Z" fill="white"/>
<path d="M207.501 369.166C142.501 345.834 109.167 273.334 133.335 209.166C145.835 174.166 173.335 147.5 207.501 135C210.835 133.334 212.501 130.834 212.501 126.666V115C212.501 111.666 210.835 109.166 207.501 108.334C206.667 108.334 205.001 108.334 204.167 109.166C125.001 134.166 81.6666 218.334 106.667 297.5C121.667 344.166 157.501 380 204.167 395C207.501 396.666 210.835 395 211.667 391.666C212.501 390.834 212.501 390 212.501 388.334V376.666C212.501 374.166 210.001 370.834 207.501 369.166ZM295.835 109.166C292.501 107.5 289.167 109.166 288.335 112.5C287.501 113.334 287.501 114.166 287.501 115.834V127.5C287.501 130.834 290.001 134.166 292.501 135.834C357.501 159.166 390.835 231.666 366.667 295.834C354.167 330.834 326.667 357.5 292.501 370C289.167 371.666 287.501 374.166 287.501 378.334V390C287.501 393.334 289.167 395.834 292.501 396.666C293.335 396.666 295.001 396.666 295.835 395.834C375.001 370.834 418.335 286.666 393.335 207.5C378.335 160 341.667 124.166 295.835 109.166Z" fill="white"/>
</g>
<defs>
<clipPath id="clip0_383_19">
<rect width="400" height="400" fill="white" transform="translate(50 50)"/>
</clipPath>
</defs>
</svg>
