<svg width="500" height="500" viewBox="0 0 500 500" fill="none" xmlns="http://www.w3.org/2000/svg">
<rect width="500" height="500" fill="#009393"/>
<g clip-path="url(#clip0_383_6)">
<path d="M250 450C360.457 450 450 360.457 450 250C450 139.543 360.457 50 250 50C139.543 50 50 139.543 50 250C50 360.457 139.543 450 250 450Z" fill="#009393"/>
<path fill-rule="evenodd" clip-rule="evenodd" d="M250.244 264.295C284.639 264.295 313.384 258.48 320.409 250.71C314.444 244.12 292.869 238.93 265.469 237.51V253.925C260.564 254.18 255.464 254.305 250.239 254.305C245.014 254.305 239.914 254.18 234.999 253.925V237.51C207.609 238.93 186.024 244.12 180.059 250.71C187.094 258.48 215.844 264.295 250.239 264.295H250.244ZM311.354 187.03V209.635H265.469V225.31C297.699 226.985 321.884 233.875 322.064 242.12V259.31C321.884 267.555 297.699 274.43 265.469 276.11V314.58H235.004V276.11C202.774 274.435 178.599 267.555 178.419 259.31V242.12C178.599 233.875 202.774 226.985 235.004 225.31V209.635H189.119V187.03H311.359H311.354ZM171.074 151.055H332.154C336.004 151.055 339.549 153.08 341.469 156.37L388.394 236.95C390.824 241.13 390.104 246.405 386.634 249.79L257.464 375.88C253.274 379.965 246.544 379.965 242.364 375.88L113.354 249.96C109.809 246.49 109.139 241.065 111.754 236.865L161.919 156.12C163.874 152.98 167.344 151.06 171.079 151.06L171.074 151.055Z" fill="white"/>
</g>
<defs>
<clipPath id="clip0_383_6">
<rect width="400" height="400" fill="white" transform="translate(50 50)"/>
</clipPath>
</defs>
</svg>
