<svg width="500" height="500" viewBox="0 0 500 500" fill="none" xmlns="http://www.w3.org/2000/svg">
<rect width="500" height="500" fill="#009393"/>
<g clip-path="url(#clip0_383_6)">
<path d="M250 475C374.264 475 475 374.264 475 250C475 125.736 374.264 25 250 25C125.736 25 25 125.736 25 250C25 374.264 125.736 475 250 475Z" fill="#009393"/>
<path fill-rule="evenodd" clip-rule="evenodd" d="M250.275 266.082C288.97 266.082 321.308 259.54 329.211 250.799C322.5 243.385 298.228 237.546 267.403 235.949V254.416C261.885 254.703 256.148 254.843 250.27 254.843C244.392 254.843 238.654 254.703 233.125 254.416V235.949C202.311 237.546 178.028 243.385 171.317 250.799C179.232 259.54 211.575 266.082 250.27 266.082H250.275ZM319.024 179.159V204.589H267.403V222.224C303.662 224.108 330.87 231.859 331.073 241.135V260.474C330.87 269.749 303.662 277.484 267.403 279.374V322.653H233.13V279.374C196.872 277.489 169.675 269.749 169.472 260.474V241.135C169.675 231.859 196.872 224.108 233.13 222.224V204.589H181.51V179.159H319.03H319.024ZM161.209 138.687H342.424C346.755 138.687 350.743 140.965 352.903 144.666L405.694 235.319C408.428 240.021 407.618 245.956 403.714 249.764L258.398 391.615C253.684 396.211 246.113 396.211 241.41 391.615L96.2741 249.955C92.286 246.051 91.5322 239.948 94.4741 235.223L150.91 144.385C153.109 140.853 157.013 138.693 161.215 138.693L161.209 138.687Z" fill="white"/>
</g>
<defs>
<clipPath id="clip0_383_6">
<rect width="450" height="450" fill="white" transform="translate(25 25)"/>
</clipPath>
</defs>
</svg>
